<mxfile host="app.diagrams.net" modified="2022-11-28T11:29:01.880Z" agent="5.0 (Windows NT 10.0; Win64; x64) AppleWebKit/537.36 (KHTML, like Gecko) Chrome/107.0.0.0 Safari/537.36" version="20.6.0" etag="iZHU0uZhk9gL1MMOEH6B" type="github">
  <diagram id="U3X7yAVofSB0_fFjsSE9" name="第 1 页">
    <mxGraphModel dx="1038" dy="539" grid="1" gridSize="10" guides="1" tooltips="1" connect="1" arrows="1" fold="1" page="1" pageScale="1" pageWidth="827" pageHeight="1169" math="0" shadow="0">
      <root>
        <mxCell id="0" />
        <mxCell id="1" parent="0" />
        <mxCell id="NWSvcn1y5vmJvd92Y7-b-14" style="edgeStyle=orthogonalEdgeStyle;rounded=0;orthogonalLoop=1;jettySize=auto;html=1;" edge="1" parent="1" source="NWSvcn1y5vmJvd92Y7-b-3">
          <mxGeometry relative="1" as="geometry">
            <mxPoint x="230" y="164.55" as="targetPoint" />
          </mxGeometry>
        </mxCell>
        <mxCell id="NWSvcn1y5vmJvd92Y7-b-3" value="" style="points=[];aspect=fixed;html=1;align=center;shadow=0;dashed=0;image;image=img/lib/allied_telesis/computer_and_terminals/Personal_Computer.svg;" vertex="1" parent="1">
          <mxGeometry x="20" y="133.65" width="45.6" height="61.8" as="geometry" />
        </mxCell>
        <mxCell id="NWSvcn1y5vmJvd92Y7-b-10" value="" style="image;html=1;image=img/lib/clip_art/computers/Server_Tower_128x128.png" vertex="1" parent="1">
          <mxGeometry x="350" y="470" width="80" height="80" as="geometry" />
        </mxCell>
        <mxCell id="NWSvcn1y5vmJvd92Y7-b-11" value="" style="image;html=1;image=img/lib/clip_art/computers/Server_Tower_128x128.png" vertex="1" parent="1">
          <mxGeometry x="680" y="320" width="80" height="80" as="geometry" />
        </mxCell>
        <mxCell id="NWSvcn1y5vmJvd92Y7-b-30" value="" style="edgeStyle=orthogonalEdgeStyle;rounded=0;orthogonalLoop=1;jettySize=auto;html=1;" edge="1" parent="1" source="NWSvcn1y5vmJvd92Y7-b-13" target="NWSvcn1y5vmJvd92Y7-b-24">
          <mxGeometry relative="1" as="geometry" />
        </mxCell>
        <mxCell id="NWSvcn1y5vmJvd92Y7-b-13" value="" style="image;html=1;image=img/lib/clip_art/computers/Server_Rack_128x128.png" vertex="1" parent="1">
          <mxGeometry x="220" y="124.55" width="80" height="80" as="geometry" />
        </mxCell>
        <mxCell id="NWSvcn1y5vmJvd92Y7-b-19" value="KDCQ" style="text;html=1;align=center;verticalAlign=middle;resizable=0;points=[];autosize=1;strokeColor=none;fillColor=none;" vertex="1" parent="1">
          <mxGeometry x="414" y="495" width="60" height="30" as="geometry" />
        </mxCell>
        <mxCell id="NWSvcn1y5vmJvd92Y7-b-20" value="EAS" style="text;html=1;align=center;verticalAlign=middle;resizable=0;points=[];autosize=1;strokeColor=none;fillColor=none;" vertex="1" parent="1">
          <mxGeometry x="740" y="345" width="50" height="30" as="geometry" />
        </mxCell>
        <mxCell id="NWSvcn1y5vmJvd92Y7-b-21" value="request" style="text;html=1;align=center;verticalAlign=middle;resizable=0;points=[];autosize=1;strokeColor=none;fillColor=none;" vertex="1" parent="1">
          <mxGeometry x="120" y="124.55" width="60" height="30" as="geometry" />
        </mxCell>
        <mxCell id="NWSvcn1y5vmJvd92Y7-b-32" style="edgeStyle=orthogonalEdgeStyle;rounded=0;orthogonalLoop=1;jettySize=auto;html=1;" edge="1" parent="1" source="NWSvcn1y5vmJvd92Y7-b-24">
          <mxGeometry relative="1" as="geometry">
            <mxPoint x="390" y="250" as="targetPoint" />
          </mxGeometry>
        </mxCell>
        <mxCell id="NWSvcn1y5vmJvd92Y7-b-24" value="是否为加&lt;br&gt;密报文？" style="rhombus;whiteSpace=wrap;html=1;" vertex="1" parent="1">
          <mxGeometry x="340" y="130" width="100" height="70" as="geometry" />
        </mxCell>
        <mxCell id="NWSvcn1y5vmJvd92Y7-b-33" value="是" style="text;html=1;align=center;verticalAlign=middle;resizable=0;points=[];autosize=1;strokeColor=none;fillColor=none;" vertex="1" parent="1">
          <mxGeometry x="380" y="204.55" width="40" height="30" as="geometry" />
        </mxCell>
        <mxCell id="NWSvcn1y5vmJvd92Y7-b-36" style="edgeStyle=orthogonalEdgeStyle;rounded=0;orthogonalLoop=1;jettySize=auto;html=1;" edge="1" parent="1" source="NWSvcn1y5vmJvd92Y7-b-34">
          <mxGeometry relative="1" as="geometry">
            <mxPoint x="390" y="320" as="targetPoint" />
          </mxGeometry>
        </mxCell>
        <mxCell id="NWSvcn1y5vmJvd92Y7-b-34" value="先解密" style="rounded=0;whiteSpace=wrap;html=1;" vertex="1" parent="1">
          <mxGeometry x="340" y="250" width="100" height="30" as="geometry" />
        </mxCell>
        <mxCell id="NWSvcn1y5vmJvd92Y7-b-40" style="edgeStyle=orthogonalEdgeStyle;rounded=0;orthogonalLoop=1;jettySize=auto;html=1;exitX=1;exitY=0.5;exitDx=0;exitDy=0;" edge="1" parent="1" source="NWSvcn1y5vmJvd92Y7-b-37">
          <mxGeometry relative="1" as="geometry">
            <mxPoint x="520" y="360" as="targetPoint" />
          </mxGeometry>
        </mxCell>
        <mxCell id="NWSvcn1y5vmJvd92Y7-b-45" style="edgeStyle=orthogonalEdgeStyle;rounded=0;orthogonalLoop=1;jettySize=auto;html=1;entryX=0.5;entryY=0;entryDx=0;entryDy=0;" edge="1" parent="1" source="NWSvcn1y5vmJvd92Y7-b-37" target="NWSvcn1y5vmJvd92Y7-b-10">
          <mxGeometry relative="1" as="geometry">
            <mxPoint x="390" y="460" as="targetPoint" />
          </mxGeometry>
        </mxCell>
        <mxCell id="NWSvcn1y5vmJvd92Y7-b-37" value="请求发给&lt;br&gt;EAS / 苍穹？" style="rhombus;whiteSpace=wrap;html=1;" vertex="1" parent="1">
          <mxGeometry x="335" y="320" width="110" height="80" as="geometry" />
        </mxCell>
        <mxCell id="NWSvcn1y5vmJvd92Y7-b-41" value="EAS" style="text;html=1;align=center;verticalAlign=middle;resizable=0;points=[];autosize=1;strokeColor=none;fillColor=none;" vertex="1" parent="1">
          <mxGeometry x="445" y="330" width="50" height="30" as="geometry" />
        </mxCell>
        <mxCell id="NWSvcn1y5vmJvd92Y7-b-43" style="edgeStyle=orthogonalEdgeStyle;rounded=0;orthogonalLoop=1;jettySize=auto;html=1;" edge="1" parent="1" source="NWSvcn1y5vmJvd92Y7-b-42" target="NWSvcn1y5vmJvd92Y7-b-11">
          <mxGeometry relative="1" as="geometry" />
        </mxCell>
        <mxCell id="NWSvcn1y5vmJvd92Y7-b-42" value="解密报文" style="rounded=0;whiteSpace=wrap;html=1;" vertex="1" parent="1">
          <mxGeometry x="520" y="345" width="100" height="30" as="geometry" />
        </mxCell>
        <mxCell id="NWSvcn1y5vmJvd92Y7-b-46" value="苍穹" style="text;html=1;align=center;verticalAlign=middle;resizable=0;points=[];autosize=1;strokeColor=none;fillColor=none;" vertex="1" parent="1">
          <mxGeometry x="389" y="420" width="50" height="30" as="geometry" />
        </mxCell>
      </root>
    </mxGraphModel>
  </diagram>
</mxfile>
